<?xml version="1.0" standalone="no"?>
<!DOCTYPE svg PUBLIC "-//W3C//DTD SVG 20010904//EN"
 "http://www.w3.org/TR/2001/REC-SVG-20010904/DTD/svg10.dtd">
<svg version="1.0" xmlns="http://www.w3.org/2000/svg"
 width="775.000000pt" height="396.000000pt" viewBox="0 0 775.000000 396.000000"
 preserveAspectRatio="xMidYMid meet">

<g transform="translate(0.000000,396.000000) scale(0.100000,-0.100000)"
fill="#000000" stroke="none">
<path d="M3430 3944 c-43 -14 -116 -30 -360 -79 -63 -13 -127 -28 -141 -34
-15 -5 -29 -7 -32 -5 -3 3 -52 -6 -109 -19 -56 -14 -146 -33 -198 -42 -52 -9
-129 -25 -172 -35 -42 -11 -96 -22 -120 -25 -23 -3 -81 -14 -128 -25 -141 -32
-381 -81 -443 -91 -32 -5 -86 -16 -120 -25 -34 -8 -107 -24 -162 -34 -55 -11
-129 -26 -165 -35 -36 -8 -132 -29 -215 -46 -82 -16 -167 -34 -188 -38 -47
-10 -57 -23 -112 -136 -95 -198 -127 -378 -101 -558 9 -57 25 -130 36 -162 21
-60 29 -70 209 -260 47 -50 156 -164 241 -254 85 -91 173 -183 195 -206 22
-23 103 -109 180 -190 77 -82 177 -187 222 -234 45 -47 94 -99 109 -116 14
-16 65 -71 113 -120 47 -50 151 -160 231 -245 80 -84 163 -172 185 -195 22
-22 112 -117 200 -210 88 -94 199 -210 246 -260 47 -49 104 -110 125 -133 l40
-44 194 0 c116 0 209 5 230 12 19 6 76 22 125 35 50 13 133 36 185 50 52 14
102 27 110 30 8 2 69 18 135 36 66 17 147 38 180 46 33 8 103 28 156 44 52 16
103 29 113 29 10 0 64 13 119 30 107 31 256 71 517 141 85 22 193 52 240 66
46 14 97 27 113 29 16 2 43 8 60 13 116 37 143 45 148 43 4 -1 62 15 130 34
68 19 178 48 244 64 66 17 149 39 185 50 76 23 231 64 345 92 44 10 109 28
145 39 36 11 74 22 85 25 35 7 128 32 185 49 30 9 66 18 80 21 81 15 81 16 51
87 -16 36 -32 52 -90 88 -39 24 -114 72 -167 107 -53 35 -99 61 -102 57 -3 -3
13 -41 35 -85 l41 -80 -52 -15 c-56 -16 -298 -81 -786 -211 -326 -87 -711
-190 -932 -250 -124 -33 -278 -74 -483 -129 -333 -89 -440 -117 -520 -139 -49
-14 -166 -45 -260 -70 -93 -25 -255 -68 -360 -96 -257 -70 -336 -90 -350 -90
-36 0 -49 268 -21 442 18 110 50 233 76 293 9 22 25 59 35 83 11 25 25 42 35
42 9 0 144 38 301 84 156 46 448 132 649 191 201 59 453 133 560 165 107 32
283 84 390 115 107 31 238 70 290 85 52 15 167 49 255 75 88 26 232 69 320 95
88 27 185 55 215 63 122 33 437 127 460 138 14 6 99 33 190 60 97 29 170 56
178 66 6 9 12 33 12 52 0 33 -4 38 -47 61 -27 13 -91 47 -143 76 -52 28 -151
81 -220 117 -69 35 -163 86 -210 112 -47 26 -123 68 -170 93 -47 24 -116 61
-155 82 -38 20 -110 59 -160 85 -49 26 -142 76 -205 110 -111 60 -193 104
-350 188 -41 22 -157 84 -258 138 -101 55 -185 99 -187 99 -3 0 -26 13 -52 28
-27 16 -127 71 -223 122 -414 220 -607 324 -629 342 -22 16 -45 18 -265 17
-178 -1 -253 -5 -286 -15z m355 -164 c60 -56 9 -144 -119 -204 -87 -41 -148
-56 -268 -65 l-93 -7 55 -13 c30 -7 103 -16 162 -18 90 -5 112 -3 134 11 15
10 23 23 20 32 -4 11 5 14 38 14 76 0 90 -51 22 -83 -65 -31 -184 -24 -422 24
l-205 42 -37 -36 c-45 -43 -92 -65 -164 -73 -63 -7 -124 11 -145 42 -12 20
-12 25 9 49 25 29 110 55 182 55 30 0 43 6 59 28 50 64 114 125 152 144 56 29
158 35 222 14 62 -21 86 -45 81 -82 -4 -37 -37 -54 -105 -54 -58 0 -79 14 -33
23 29 6 70 39 70 56 0 22 -34 41 -71 41 -34 0 -48 -7 -91 -47 -28 -27 -63 -67
-79 -90 l-29 -41 38 -6 c49 -9 241 9 315 29 121 32 187 86 187 154 0 23 -7 45
-19 58 -27 29 -16 36 51 31 43 -3 64 -10 83 -28z m-1523 -346 l121 -26 46 22
c56 28 167 38 211 20 30 -13 47 -47 37 -74 -3 -7 -26 -23 -51 -35 -50 -25
-134 -31 -232 -18 l-61 9 -66 -85 c-132 -169 -236 -232 -346 -209 -50 11 -61
35 -31 67 21 22 25 23 40 10 50 -46 136 -19 230 71 33 32 59 59 57 61 -2 2
-34 -10 -71 -27 -126 -57 -287 -80 -421 -60 -173 26 -249 103 -153 155 l38 20
29 -36 c17 -20 54 -47 83 -60 47 -21 67 -24 178 -24 106 0 135 4 190 24 80 29
200 90 200 102 0 5 -3 9 -6 9 -3 0 -55 11 -116 25 -164 37 -258 33 -258 -13 0
-22 69 -45 123 -39 56 5 59 -9 6 -36 -24 -13 -47 -17 -76 -13 -121 15 -132
109 -20 162 70 32 161 32 319 -2z m2328 -23 c0 -12 -8 -14 -130 -41 -52 -11
-114 -25 -138 -31 -121 -27 -641 -144 -737 -164 -60 -14 -191 -43 -290 -65
-99 -22 -243 -54 -320 -71 -176 -39 -238 -53 -782 -174 -383 -85 -473 -101
-452 -81 2 3 270 64 594 136 325 72 721 160 880 196 160 36 340 76 400 89 61
13 191 43 290 65 99 22 234 52 300 67 66 14 174 38 240 53 140 32 145 33 145
21z m114 -123 c7 -18 54 -85 105 -148 96 -122 245 -257 293 -267 53 -11 52
-29 -2 -41 -54 -13 -84 -7 -76 14 9 24 -155 154 -341 270 -98 61 -189 115
-203 119 -14 4 -31 12 -38 18 -11 9 -11 12 5 18 35 14 66 9 102 -19 55 -43
282 -184 287 -179 3 3 -39 50 -93 105 -73 75 -105 101 -127 104 -36 4 -46 25
-14 31 68 13 87 8 102 -25z m-309 -57 c60 -27 160 -124 181 -175 13 -30 31
-52 59 -69 97 -61 253 -145 288 -156 46 -16 47 -28 2 -37 -26 -5 -44 -1 -72
16 -21 13 -76 45 -123 72 -47 28 -101 59 -120 70 -46 28 -26 7 75 -77 44 -36
93 -69 109 -73 47 -12 41 -29 -13 -42 -54 -13 -73 -8 -69 18 2 10 -49 61 -138
136 -241 207 -308 260 -344 272 -19 7 -36 16 -37 21 -3 9 107 40 147 42 8 0
33 -8 55 -18z m-3405 -2 c0 -6 -13 -35 -29 -63 -38 -67 -87 -222 -100 -319
-19 -139 -10 -302 25 -426 10 -35 12 -57 5 -64 -11 -11 -24 29 -47 153 -22
117 -14 342 16 455 32 121 130 319 130 264z m3250 -198 c124 -85 254 -174 289
-199 35 -24 84 -53 109 -63 49 -21 47 -33 -5 -42 -25 -5 -37 -2 -51 13 -10 11
-54 45 -98 75 -77 54 -120 67 -152 46 -17 -10 110 -131 138 -131 24 0 50 -10
50 -20 0 -11 -86 -31 -104 -24 -9 3 -16 14 -16 24 0 16 -70 97 -308 355 -61
66 -108 123 -105 128 6 10 -9 19 253 -162z m-380 87 c16 -42 102 -123 378
-353 72 -60 127 -112 121 -113 -10 -4 -75 31 -384 205 -88 50 -178 100 -200
113 l-40 22 44 -38 c122 -107 331 -268 374 -287 26 -12 47 -25 47 -29 0 -11
-80 -30 -96 -24 -8 3 -18 16 -23 29 -11 27 -91 103 -261 247 -163 139 -193
160 -218 160 -20 0 -39 17 -29 26 2 3 20 7 39 10 33 6 109 -33 477 -244 25
-14 41 -20 37 -14 -16 26 -274 224 -323 249 -29 14 -53 29 -53 33 0 7 58 27
88 29 7 1 17 -9 22 -21z m-328 -126 c155 -76 327 -226 383 -334 26 -50 28 -59
17 -83 -12 -26 -16 -27 -67 -23 -183 15 -545 316 -545 453 0 30 13 35 77 31
37 -2 77 -15 135 -44z m-2421 -127 c26 -59 32 -129 19 -224 -20 -143 -66 -233
-112 -216 -8 3 -32 26 -53 51 -27 33 -34 48 -25 54 16 10 63 381 54 435 l-6
40 52 -50 c29 -27 61 -68 71 -90z m2053 92 c-1 -10 34 -47 90 -95 248 -212
354 -297 393 -314 24 -10 43 -22 43 -26 0 -11 -97 -30 -111 -21 -6 4 -9 11 -5
17 11 17 -452 412 -483 412 -10 0 -26 6 -36 14 -18 13 -16 15 25 24 61 14 85
11 84 -11z m-100 -69 c41 -35 72 -66 70 -70 -3 -4 -31 10 -62 31 -58 39 -121
66 -131 55 -3 -3 4 -13 16 -22 11 -9 114 -95 227 -190 114 -96 228 -183 253
-194 39 -17 44 -22 29 -30 -10 -6 -39 -11 -64 -11 -39 -2 -47 1 -44 15 2 16
-52 64 -358 321 -63 53 -121 97 -127 97 -24 0 -13 -36 22 -70 34 -33 43 -50
28 -50 -14 1 -172 137 -166 143 3 4 13 3 22 -2 20 -10 181 26 181 41 0 18 27
1 104 -64z m-275 -64 c36 -31 68 -60 69 -65 6 -15 -14 -10 -39 10 -69 53 -167
87 -196 66 -16 -12 -16 -15 8 -51 90 -136 358 -326 461 -328 l43 -1 -1 38 c-1
43 9 47 31 13 25 -38 30 -90 10 -109 -21 -22 -43 -21 -113 3 -150 53 -380 237
-451 362 -35 61 -37 74 -14 100 12 13 31 18 71 18 52 0 58 -3 121 -56z m2779
4 c-3 -7 -22 -16 -44 -21 -21 -5 -106 -24 -189 -43 -82 -20 -217 -51 -300 -70
-82 -19 -186 -43 -230 -54 -44 -10 -147 -35 -230 -54 -82 -20 -267 -63 -410
-96 -143 -34 -327 -77 -410 -96 -82 -19 -206 -48 -275 -64 -139 -33 -391 -92
-640 -150 -91 -21 -193 -45 -227 -53 -46 -11 -63 -12 -63 -4 0 11 91 35 450
118 74 17 189 44 255 59 66 16 188 45 270 64 188 44 435 101 540 126 44 11
159 37 255 60 96 22 231 54 300 70 126 30 382 90 585 137 61 14 160 38 220 53
126 32 148 35 143 18z m-3139 -17 c7 -5 10 -14 6 -21 -8 -13 -7 -13 119 -120
277 -234 325 -271 364 -286 23 -9 42 -20 42 -24 0 -9 -100 -31 -111 -24 -5 3
-9 13 -9 23 0 12 -76 82 -201 187 -234 196 -268 223 -289 224 -9 0 -21 5 -28
12 -10 10 -3 15 30 24 56 15 61 15 77 5z m-1207 -48 c28 -27 36 -49 19 -55
-16 -5 -60 -397 -49 -430 15 -42 3 -45 -32 -8 -31 33 -38 56 -19 62 6 2 19 72
30 158 22 180 25 246 15 278 -10 29 2 28 36 -5z m1050 -34 c107 -54 299 -218
360 -307 34 -50 47 -112 27 -129 -22 -17 -132 -41 -149 -33 -8 5 -15 16 -15
26 0 23 -441 394 -477 401 -15 3 -32 11 -38 18 -8 10 8 17 72 33 97 24 160 22
220 -9z m3376 -75 c84 -59 -73 -222 -297 -309 -93 -36 -231 -65 -309 -65 -57
0 -50 -8 25 -25 92 -22 203 -29 249 -16 52 14 94 46 94 73 0 19 5 20 46 15 25
-2 51 -10 57 -16 20 -20 -9 -58 -70 -87 -55 -27 -65 -29 -178 -28 -92 1 -146
8 -230 28 -60 15 -138 32 -172 38 l-62 11 -46 -41 c-115 -101 -295 -143 -340
-79 -20 29 -20 31 16 71 37 42 117 75 205 83 62 6 65 7 136 75 113 109 182
156 260 179 155 47 283 -15 223 -107 -30 -47 -143 -81 -183 -55 -9 5 1 13 32
25 45 17 96 65 96 91 0 40 -78 37 -140 -6 -46 -32 -145 -124 -200 -184 l-25
-28 90 7 c247 20 412 72 518 166 70 62 92 116 73 178 -7 21 -5 22 51 22 37 0
67 -6 81 -16z m-4271 -46 c38 -42 45 -67 38 -129 -4 -32 -10 -59 -15 -59 -4 0
-10 28 -12 63 -7 73 -25 119 -47 115 -9 -2 -24 -27 -35 -58 -26 -75 -28 -287
-4 -342 18 -39 43 -49 66 -26 9 9 12 8 12 -5 0 -23 -35 -57 -58 -57 -25 0 -47
26 -62 74 -18 55 -8 296 14 356 18 47 52 90 71 90 6 0 21 -10 32 -22z m93 -91
c0 -19 90 -118 101 -111 11 6 11 -30 3 -103 -9 -73 -24 -67 -24 10 0 74 -15
109 -24 56 -20 -113 -45 -377 -40 -408 l7 -36 -32 29 c-29 27 -42 66 -23 66 7
0 48 298 55 394 3 46 -20 42 -35 -6 -12 -41 -12 -42 -16 -13 -5 42 8 135 19
135 5 0 9 -6 9 -13z m198 -231 c-19 -14 -63 -367 -55 -437 3 -27 3 -49 0 -49
-15 0 -63 55 -63 72 0 11 5 16 10 13 6 -3 10 -4 10 -2 0 2 11 96 25 208 14
112 23 222 20 244 l-6 40 37 -39 c31 -33 35 -41 22 -50z m145 -94 c67 -74 73
-352 11 -480 -41 -84 -83 -90 -118 -18 -85 179 7 608 107 498z m2469 -24 c43
-33 11 -92 -71 -134 -53 -27 -63 -29 -181 -29 -69 -1 -132 -5 -141 -10 -9 -6
-68 -58 -130 -117 -138 -129 -174 -158 -262 -211 -59 -34 -78 -41 -140 -45
-58 -3 -75 -1 -86 11 -10 13 -10 20 2 37 8 12 25 29 37 37 20 14 25 14 56 -3
30 -16 39 -17 81 -6 55 15 151 78 238 157 l60 55 -105 -50 c-156 -73 -248 -95
-400 -95 -110 0 -131 3 -171 23 -42 20 -69 54 -69 86 0 14 55 69 87 85 33 17
43 14 43 -13 0 -30 33 -71 73 -94 25 -13 55 -17 142 -16 128 1 199 21 380 108
154 74 156 78 48 106 -49 12 -124 24 -168 27 -69 4 -85 1 -112 -16 -38 -24
-41 -41 -13 -66 16 -15 31 -17 85 -13 57 5 64 4 53 -9 -43 -52 -173 -72 -202
-31 -9 12 -16 33 -16 45 0 36 72 107 143 139 55 26 72 29 157 28 65 -1 125 -9
192 -26 96 -25 97 -25 126 -6 79 50 226 75 264 46z m-2283 -367 c12 -112 22
-206 24 -208 9 -8 27 256 21 295 -8 49 2 52 34 11 23 -28 23 -31 9 -67 -17
-42 -30 -126 -52 -326 -14 -131 -19 -155 -29 -145 -4 4 -27 244 -43 439 -5 53
-8 68 -13 50 -15 -56 -32 -266 -26 -323 l6 -61 -34 33 -34 33 19 47 c23 63 63
372 54 431 l-6 45 25 -25 c23 -23 26 -38 45 -229z m224 -329 l2 -321 -22 21
c-22 20 -22 27 -17 120 6 94 5 101 -17 124 -12 13 -26 24 -29 24 -14 0 -31
-119 -20 -139 26 -49 6 -53 -33 -6 l-27 33 19 34 c10 18 43 121 71 228 53 196
59 215 66 207 2 -2 5 -148 7 -325z m188 94 c24 -32 29 -49 29 -96 0 -62 -21
-133 -47 -162 -14 -15 -14 -32 -4 -150 7 -73 14 -149 18 -168 l5 -35 -23 22
c-24 24 -37 97 -38 215 -1 31 -5 59 -10 62 -11 7 -23 -130 -15 -172 8 -41 -3
-41 -38 1 -32 36 -33 43 -15 62 18 17 61 419 52 477 l-7 43 32 -30 c18 -16 45
-48 61 -69z m119 -100 c15 -17 20 -31 16 -43 -4 -10 -4 -83 0 -163 l7 -144 23
74 c27 83 30 117 19 175 l-8 40 36 -35 c40 -38 45 -54 24 -75 -8 -7 -32 -64
-55 -126 -45 -125 -68 -261 -52 -305 22 -58 4 -59 -41 -3 -26 33 -29 43 -18
49 23 15 35 159 28 350 -4 96 -10 187 -14 203 -9 34 4 35 35 3z m380 -86 c0
-5 -13 -31 -28 -57 -70 -119 -140 -319 -163 -463 -18 -116 -7 -307 24 -403 14
-42 21 -79 17 -82 -11 -7 -14 -1 -39 79 -77 249 -28 567 134 869 33 60 55 84
55 57z m261 -263 c-10 -9 -11 -8 -5 6 3 10 9 15 12 12 3 -3 0 -11 -7 -18z"/>
<path d="M2895 3513 c-75 -16 -96 -45 -36 -51 32 -3 101 30 101 49 0 9 -29 10
-65 2z"/>
<path d="M2487 3415 c-21 -7 -41 -16 -44 -19 -12 -11 101 -12 145 -1 20 5 22
8 12 20 -15 18 -63 18 -113 0z"/>
<path d="M4305 3199 c4 -5 47 -44 96 -84 85 -71 123 -92 150 -83 33 11 -183
178 -229 178 -14 0 -21 -4 -17 -11z"/>
<path d="M4199 2984 c36 -38 69 -74 75 -81 7 -8 23 -9 45 -5 l33 7 -93 65
c-130 91 -132 91 -60 14z"/>
<path d="M3355 2980 c-27 -43 214 -255 382 -337 89 -42 163 -55 163 -29 0 32
-30 74 -96 134 -83 76 -246 187 -322 218 -59 25 -117 31 -127 14z"/>
<path d="M1011 2726 c-24 -192 -22 -233 9 -261 17 -16 19 -15 35 9 25 37 48
189 43 282 -4 79 -27 142 -54 151 -7 2 -19 -63 -33 -181z"/>
<path d="M2105 2710 c-4 -6 -1 -17 5 -25 21 -25 410 -350 428 -357 9 -4 36 -7
60 -7 48 -1 55 15 26 59 -56 84 -259 252 -375 311 -59 29 -132 39 -144 19z"/>
<path d="M4552 2255 c-49 -15 -72 -31 -72 -51 0 -30 92 -3 150 45 l25 21 -30
-1 c-16 0 -49 -6 -73 -14z"/>
<path d="M1741 2144 c-14 -32 -30 -147 -31 -221 0 -86 21 -202 41 -226 l19
-22 19 22 c22 27 41 142 41 251 -1 165 -52 277 -89 196z"/>
<path d="M4090 2118 l-55 -22 46 -8 c56 -10 132 10 137 35 5 24 -58 22 -128
-5z"/>
<path d="M2165 1561 c-14 -58 -14 -72 -3 -90 7 -11 16 -21 20 -21 5 0 8 41 8
90 0 50 -2 90 -4 90 -2 0 -11 -31 -21 -69z"/>
<path d="M2366 1528 c-16 -117 -17 -145 -6 -173 11 -29 12 -29 23 -10 15 26
16 200 1 215 -9 9 -13 0 -18 -32z"/>
<path d="M5258 1543 c7 -3 16 -2 19 1 4 3 -2 6 -13 5 -11 0 -14 -3 -6 -6z"/>
<path d="M5350 1360 c-18 -12 -2 -12 25 0 13 6 15 9 5 9 -8 0 -22 -4 -30 -9z"/>
<path d="M3648 993 c7 -3 16 -2 19 1 4 3 -2 6 -13 5 -11 0 -14 -3 -6 -6z"/>
<path d="M4938 923 c7 -3 16 -2 19 1 4 3 -2 6 -13 5 -11 0 -14 -3 -6 -6z"/>
<path d="M3808 613 c7 -3 16 -2 19 1 4 3 -2 6 -13 5 -11 0 -14 -3 -6 -6z"/>
</g>
</svg>
